<svg width="31" height="31" viewBox="0 0 31 31" fill="none" xmlns="http://www.w3.org/2000/svg">
<g clip-path="url(#clip0_156_181)">
<path d="M9.4722 14.2085L8.61108 16.8779H10.3333L9.4722 14.2085Z" fill="#000091"/>
<path d="M26.0917 2.5835H12.3139V6.88905H15.7584V8.61127H4.56392C3.10004 8.61127 1.98059 9.73072 1.98059 11.1946V20.6668C1.98059 22.1307 3.10004 23.2502 4.56392 23.2502H5.42504V27.6418L10.85 23.2502H16.6195V17.2224H26.0917C27.5556 17.2224 28.675 16.1029 28.675 14.6391V5.16683C28.675 3.70294 27.5556 2.5835 26.0917 2.5835ZM11.2806 19.7196L10.85 18.3418H8.18059L7.66392 19.7196H5.59726L8.43892 12.0557H10.5056L13.3473 19.7196H11.2806ZM24.3695 12.9168V14.6391C23.25 14.6391 22.0445 14.2946 21.0111 13.7779C19.9778 14.2946 18.7723 14.5529 17.5667 14.6391L17.4806 12.9168C18.0834 12.9168 18.6861 12.8307 19.2889 12.6585C18.5139 11.8835 17.9973 10.9363 17.7389 9.90294H19.5473C19.8056 10.6779 20.3223 11.2807 20.925 11.7974C21.8723 11.0224 22.475 9.90294 22.5611 8.61127H17.3945V6.88905H19.9778V5.16683H21.7V6.88905H24.5417L24.6278 7.75016C24.7139 9.5585 24.025 11.3668 22.7334 12.6585C23.3361 12.8307 23.8528 12.9168 24.3695 12.9168Z" fill="#000091"/>
</g>
<defs>
<clipPath id="clip0_156_181">
<rect width="31" height="31" fill="white"/>
</clipPath>
</defs>
</svg>
