<svg width="31" height="31" viewBox="0 0 31 31" fill="none" xmlns="http://www.w3.org/2000/svg">
<g clip-path="url(#clip0_285_359)">
<path d="M9.4722 14.208L8.61108 16.8775H10.3333L9.4722 14.208Z" fill="white"/>
<path d="M26.0916 2.58301H12.3139V6.88856H15.7583V8.61079H4.56386C3.09997 8.61079 1.98053 9.73023 1.98053 11.1941V20.6663C1.98053 22.1302 3.09997 23.2497 4.56386 23.2497H5.42497V27.6413L10.85 23.2497H16.6194V17.2219H26.0916C27.5555 17.2219 28.675 16.1025 28.675 14.6386V5.16634C28.675 3.70245 27.5555 2.58301 26.0916 2.58301ZM11.2805 19.7191L10.85 18.3413H8.18053L7.66386 19.7191H5.5972L8.43886 12.0552H10.5055L13.3472 19.7191H11.2805ZM24.3694 12.9163V14.6386C23.25 14.6386 22.0444 14.2941 21.0111 13.7775C19.9778 14.2941 18.7722 14.5525 17.5666 14.6386L17.4805 12.9163C18.0833 12.9163 18.6861 12.8302 19.2889 12.658C18.5139 11.883 17.9972 10.9358 17.7389 9.90245H19.5472C19.8055 10.6775 20.3222 11.2802 20.925 11.7969C21.8722 11.0219 22.475 9.90245 22.5611 8.61079H17.3944V6.88856H19.9778V5.16634H21.7V6.88856H24.5416L24.6278 7.74967C24.7139 9.55801 24.025 11.3663 22.7333 12.658C23.3361 12.8302 23.8528 12.9163 24.3694 12.9163Z" fill="white"/>
</g>
<defs>
<clipPath id="clip0_285_359">
<rect width="31" height="31" fill="white"/>
</clipPath>
</defs>
</svg>
