<svg width="30" height="30" viewBox="0 0 30 30" fill="none" xmlns="http://www.w3.org/2000/svg">
<path d="M26.3745 1.91797C25.8231 4.71447 25.3613 8.08103 24.5627 11.1039C24.074 12.954 23.4589 14.6769 22.5869 16.0724C21.8316 17.2812 20.8628 18.2488 19.6297 18.7778C20.3341 20.293 22.1541 21.5516 24.0969 21.9202C24.3042 21.5601 24.5248 21.1174 24.7461 20.6049C25.3829 19.1307 26.0287 17.0937 26.4947 14.7965C27.3086 10.7836 27.5631 5.97465 26.3746 1.91797H26.3745ZM1.05469 2.27949V28.9453H3.37131C3.82014 28.4197 4.15705 27.6293 4.39395 26.25C6.52605 26.25 7.64022 25.9892 8.29881 25.6053C6.645 24.1116 5.28627 22.1574 4.28777 19.6752C4.97022 20.5575 5.7941 21.4016 6.75147 22.1924C9.27334 26.1024 13.0451 27.9264 17.7911 28.4114C17.8221 28.3675 17.8484 28.3324 17.8922 28.263C17.96 28.1562 18.0333 28.0339 18.1427 27.9071C18.2522 27.7804 18.4344 27.5777 18.7818 27.5987C19.1143 27.6187 19.263 27.8008 19.3763 27.9289C19.4895 28.057 19.5738 28.1857 19.6522 28.3005C19.7223 28.4034 19.7816 28.4837 19.8238 28.534C21.7725 28.5715 23.3172 28.3365 24.2932 27.8247C25.285 27.3047 25.7488 26.5958 25.7224 25.3468C25.6331 24.4769 25.058 23.7247 24.1435 22.9961C21.7636 22.6285 19.5152 21.173 18.6322 19.1278C17.9859 19.0519 17.433 18.6396 17.0277 18.1399C16.5543 17.5561 16.2302 16.8286 16.071 16.1266C15.4475 14.734 14.1382 12.4639 12.6591 10.5545C11.9156 9.59451 11.1275 8.72422 10.3788 8.10031C10.1865 7.93942 9.98533 7.78938 9.77631 7.6509L8.90326 8.08742C8.3874 7.05559 8.15537 5.84855 7.92281 4.80189C7.75506 4.04721 7.56205 3.39096 7.36172 2.97301C6.26045 3.82057 5.98898 4.66543 6.02227 5.55307C6.05977 6.54682 6.5666 7.61809 7.03418 8.55318L6.09082 9.02486C6.00906 8.86164 5.9282 8.69796 5.84824 8.53385C5.20195 9.30945 4.65996 10.3545 4.30313 11.5103C3.92695 12.7295 3.76266 14.0617 3.85518 15.3251L2.77588 14.1259C2.8248 13.129 3.00709 12.1331 3.29531 11.1992C3.72439 9.80902 4.39219 8.54662 5.25844 7.60561C5.29934 7.56119 5.34088 7.51771 5.38283 7.47471C5.16176 6.88936 4.9933 6.25678 4.96834 5.59268C4.96131 5.40576 4.96805 5.2168 4.98896 5.02707C3.75422 3.85818 2.47881 2.82359 1.05469 2.27949ZM11.3883 3.55895C11.188 3.97689 10.995 4.63309 10.8272 5.38783C10.7235 5.85482 10.6161 6.35217 10.4847 6.85174C10.6801 6.99017 10.8699 7.13638 11.0537 7.29002C11.4113 7.58803 11.7666 7.92652 12.1167 8.29408C12.4354 7.58721 12.7011 6.84553 12.7276 6.139C12.7609 5.25131 12.4894 4.4065 11.3882 3.55895H11.3883ZM20.5904 11.9275C20.2658 12.816 19.8908 13.7601 19.3219 14.6156C18.8753 15.2871 18.3104 15.885 17.5651 16.2463C17.4601 16.297 17.3525 16.342 17.2428 16.3812C17.3899 16.7783 17.6017 17.1733 17.8467 17.4754C17.9152 17.5602 17.989 17.6407 18.0677 17.7162L18.3246 17.9219C18.3975 17.9692 18.4756 18.0082 18.5572 18.0381L18.7437 17.9831C19.4149 17.7856 20.0023 17.4365 20.5256 16.955C20.5911 16.7376 20.6478 16.5177 20.6955 16.2957C20.9556 15.0818 21.0078 13.5925 20.5905 11.9275H20.5904ZM13.2539 18.875C13.6126 18.8837 13.9673 18.961 14.2962 19.0769C15.0479 19.342 15.7241 19.7994 16.2571 20.2054L15.6181 21.0445C15.5718 21.0092 15.5234 20.9736 15.475 20.9381C15.3415 21.3318 14.966 21.6211 14.5313 21.6211C13.9874 21.6211 13.5352 21.1688 13.5352 20.625C13.5352 20.3941 13.6172 20.1802 13.7525 20.01C13.2645 19.8699 12.8482 19.8849 12.4767 20.1285L11.8983 19.2464C12.2778 18.9976 12.6893 18.889 13.0999 18.8756C13.1513 18.8739 13.2026 18.8739 13.2538 18.8751L13.2539 18.875ZM23.2418 24.7717C23.3294 24.7724 23.4169 24.7783 23.5039 24.7893L23.3715 25.8358C22.8318 25.7674 22.4344 25.9855 21.9796 26.5729L21.1458 25.9272C21.6608 25.2619 22.3583 24.7984 23.156 24.7729C23.1846 24.7719 23.2132 24.7715 23.2419 24.7717H23.2418Z" fill="white"/>
</svg>
