<svg width="26" height="26" viewBox="0 0 26 26" fill="none" xmlns="http://www.w3.org/2000/svg">
<g clip-path="url(#clip0_285_340)">
<path d="M13.9523 14.0898V18.044L10.6979 14.742V10.9558H14.5784L17.6681 14.0898H13.9523ZM25.7454 22.3297V26H21.7869L15.5794 19.6083V15.7625H19.2129L25.7454 22.3297ZM14.0151 20.761L17.6681 24.4129C16.25 24.8918 14.898 25.1994 12.9827 25.1994C5.564 25.1983 0 19.7633 0 12.5288C0 5.33 5.564 0 12.9827 0C20.436 0 26 5.36467 26 12.5288C26 14.8254 25.4334 16.9444 24.4216 18.7677L20.4945 14.7323C20.6682 14.0213 20.7555 13.292 20.7545 12.5602C20.7545 7.91158 17.3442 4.40592 13.0628 4.40592C8.77933 4.40592 5.21083 7.91158 5.21083 12.5602C5.21083 17.2088 8.81833 20.7935 13.0618 20.7935C13.6554 20.7935 13.7778 20.8119 14.0151 20.761Z" fill="white"/>
</g>
<defs>
<clipPath id="clip0_285_340">
<rect width="26" height="26" fill="white"/>
</clipPath>
</defs>
</svg>
