<svg width="27" height="27" viewBox="0 0 27 27" fill="none" xmlns="http://www.w3.org/2000/svg">
<path d="M27 25.4982H3.36825C2.78437 25.4982 2.4255 25.1686 2.42887 24.6848C2.43 24.7321 2.43112 24.5183 2.43225 24.164C2.59125 24.071 2.75137 23.9783 2.91263 23.8861L3.00038 23.8355L3.07912 23.7702L3.096 23.7556L3.23887 23.6678L4.69462 22.7633H5.97038C9.73913 22.7633 19.2645 22.7633 24.5869 22.7712C24.7657 22.7712 25.2968 22.7712 25.7141 22.3538C26.1315 21.9353 26.1304 21.3942 26.1304 21.2165C26.1214 18.9023 26.1292 16.5938 26.136 14.2865C26.145 11.5977 26.154 8.81895 26.136 6.0762V6.00533L26.8222 5.99745C27.0124 5.99408 26.9831 6.21908 26.9831 6.33045C26.9989 12.7205 26.9606 19.1105 27 25.4982ZM16.1168 10.1048C16.1235 9.7887 16.1235 9.47483 16.1235 9.13845C16.1134 8.57595 15.6791 7.95158 15.093 7.95158C14.6036 7.95158 14.0591 7.95833 13.482 7.95833V11.3446H15.093C15.678 11.3446 16.1055 10.6876 16.1168 10.1048ZM4.37288 21.6383L4.33462 1.53345L4.3425 1.50533L4.37175 1.50195H23.8489C24.4226 1.76295 24.9097 2.13195 25.011 2.80695C25.0369 3.99045 25.011 4.93995 25.011 6.0177C25.0121 6.04358 25.0088 6.0582 25.011 6.08408C25.0448 11.1342 24.9862 16.1675 25.0054 21.2187C25.0054 21.5393 24.9244 21.6462 24.5891 21.6462C17.8504 21.6372 4.37288 21.6383 4.37288 21.6383ZM10.6999 17.171H13.3942L13.4584 17.1136V13.1761C13.8139 13.1772 14.0996 13.1705 14.3438 13.1705C14.4281 13.1705 14.7353 13.2548 14.8489 13.4922C15.2539 14.3438 15.6274 15.2146 16.1145 16.0235C16.7704 17.1113 18.0315 17.378 18.8921 17.378C19.4861 17.378 19.4861 17.351 19.4861 17.1023C19.4861 16.6265 19.4794 16.0505 19.4794 15.5566C19.026 15.5127 18.6536 15.3732 18.4342 14.948C18.027 14.1548 17.6017 13.3718 17.1754 12.5697C17.4544 12.4887 17.4206 12.5056 17.5151 12.4662C18.4815 12.0646 18.7965 11.3963 18.8797 10.5425C18.936 9.97658 18.9461 9.25545 18.9079 8.97308C18.7819 8.03595 18.4826 7.33733 17.7424 6.79958C16.8727 6.16733 15.8546 6.06045 14.8376 6.0267C13.4585 5.99028 12.0787 5.99478 10.6999 6.0402V17.171ZM4.33462 1.53345C1.83488 2.97008 1.1025 3.47295 0.250875 3.9522C0.028125 4.07483 0 4.38195 0 4.61258L0.0225 24.2438C0.669375 23.8422 3.72713 22.0388 4.37288 21.6383L4.33462 1.53345Z" fill="#000091"/>
</svg>
