<svg width="27" height="27" viewBox="0 0 27 27" fill="none" xmlns="http://www.w3.org/2000/svg">
<path d="M1.08899 10.1554L9.77061 15.1369L9.76386 16.6219L4.82511 13.7891L1.71674 15.5554L9.75824 20.1904L9.76386 21.6191L1.14861 16.6635C1.17111 17.244 1.69761 19.0328 2.70449 20.4176C3.72824 21.8205 4.89374 22.4156 4.89374 22.4156L12.8565 27V13.3301L1.09686 6.57675L1.08899 10.1554ZM25.911 5.88038L17.1225 0.813375C17.1225 0.813375 15.7297 0 13.509 0C11.196 0 9.85499 0.83925 9.85499 0.83925L1.71449 5.49675L14.0996 12.6157V27L22.2502 22.347C22.2502 22.347 23.7071 21.5426 24.8141 19.6313C25.7895 17.9483 25.911 16.3204 25.911 16.3204V5.88038ZM12.6574 8.2215C12.6574 8.2215 14.4742 7.88625 16.0099 8.77275L18.4522 10.179C18.4522 10.179 18.4556 11.4131 18.4556 13.257C18.4556 14.7341 17.2046 16.2653 17.2046 16.2653L17.2069 10.8472L12.6574 8.2215ZM19.8596 20.1038L17.2069 21.6259V20.1982L19.2712 19.017C21.2377 17.5995 21.5629 15.5104 21.5629 14.7859L21.555 8.36775L15.9232 5.12663C15.9232 5.12663 15.0682 4.56525 13.5281 4.56525C11.9902 4.56525 11.151 5.08388 11.151 5.08388L9.17324 6.22125L7.92449 5.50012L10.6571 3.9375C10.6571 3.9375 11.7259 3.34462 13.5191 3.34462C15.1639 3.34462 16.4441 3.987 16.4441 3.987L22.8037 7.66125L22.7959 14.6655C22.8409 15.7421 22.3391 18.3724 19.8596 20.1038Z" fill="#000091"/>
</svg>
