<svg width="30" height="30" viewBox="0 0 30 30" fill="none" xmlns="http://www.w3.org/2000/svg">
<g clip-path="url(#clip0_285_357)">
<path d="M15 0C6.71625 0 0 6.71625 0 15C0 23.2837 6.71625 30 15 30C23.2837 30 30 23.2837 30 15C30 6.71625 23.2837 0 15 0ZM8.7025 9.6C9.645 9.6 10.3737 10.2863 10.4587 11.1C10.545 11.8288 10.245 12.4713 9.43125 12.8575C9.0025 13.0713 8.83125 13.0725 8.745 12.9437C8.7025 12.8575 8.745 12.7725 8.83125 12.6863C9.6025 12.0438 9.6025 11.5287 9.51625 10.8012C9.47375 10.3287 9.13125 10.0287 8.7875 10.0287C7.2875 10.0287 5.145 13.3713 5.445 15.815C5.57375 16.7575 6.13125 17.8725 7.33125 17.8725C7.71625 17.8725 8.14375 17.7437 8.53125 17.5725C9.15625 17.2425 9.53 16.985 9.9025 16.5725C9.81125 15.4663 10.7825 14.015 12.2162 14.015C12.86 14.015 13.3737 14.2713 13.4162 14.7438C13.5012 15.3863 12.945 15.4712 12.7737 15.4712C12.6025 15.4712 12.3012 15.4287 12.3012 15.2587C12.2587 15.0862 12.6875 15.1713 12.645 14.7863C12.6013 14.5288 12.345 14.4438 12.0875 14.4438C11.1875 14.4438 10.6737 15.6863 10.8012 16.4575C10.845 16.8013 11.0163 17.1438 11.36 17.1438C11.6163 17.1438 12.0025 16.7563 12.1312 16.2C12.2162 15.815 12.56 15.5575 12.86 15.5575C12.9875 15.5575 13.0725 15.6 13.1163 15.7712V15.9438C13.0738 16.115 12.945 16.6288 12.9887 16.7575C12.9887 16.8438 13.0312 16.9712 13.2012 16.9712C13.3162 16.9712 13.7463 16.7463 14.1725 16.3975C14.3188 15.66 14.4887 14.775 14.4887 14.7012C14.5312 14.4012 14.66 14.1013 15.26 14.1013C15.3888 14.1013 15.4738 14.1437 15.5163 14.315V14.4875L15.3463 15.2587C15.9025 14.53 16.7175 14.0163 17.2312 14.0163C17.4462 14.0163 17.6175 14.1438 17.6175 14.3588C17.6175 14.4875 17.6175 14.7012 17.5312 14.9162C17.36 15.3875 17.145 16.1162 17.0162 16.7587C17.0162 16.93 17.06 17.1012 17.275 17.1012C17.49 17.1012 18.1313 16.8438 18.645 16.1588L18.6538 16.1538C18.6513 16.0688 18.645 15.9862 18.645 15.9012C18.645 15.3875 18.6888 14.9588 18.775 14.6588C18.86 14.3163 19.2888 14.0163 19.5463 14.0163C19.675 14.0163 19.8025 14.1025 19.8025 14.23C19.8025 14.2737 19.8025 14.3587 19.76 14.4012C19.5887 14.9587 19.46 15.4725 19.46 15.9875C19.46 16.2875 19.5025 16.715 19.5875 16.9725C19.5875 17.015 19.6312 17.0588 19.675 17.0588C19.76 17.0588 20.36 16.5025 20.7875 15.7738C20.4025 15.5163 20.1875 15.0875 20.1875 14.5738C20.1875 13.6738 20.745 13.2025 21.26 13.2025C21.6887 13.2025 22.0312 13.5025 22.0312 14.1025C22.0312 14.4875 21.9025 14.915 21.6887 15.3025H21.8162C21.9522 15.3069 22.0876 15.2825 22.2134 15.2308C22.3392 15.1791 22.4527 15.1013 22.5463 15.0025C22.586 14.9379 22.6444 14.8869 22.7137 14.8563C23.1325 14.325 23.7512 13.9313 24.4762 13.9313C25.0762 13.9313 25.6313 14.1875 25.675 14.6588C25.76 15.3025 25.2025 15.4313 25.0312 15.4313L25.0288 15.4288C24.8563 15.4288 24.5575 15.385 24.5575 15.2137C24.5575 15.0425 24.9438 15.1288 24.9 14.7438C24.8575 14.4863 24.6 14.4 24.3425 14.4C23.485 14.4 22.93 15.5137 23.0575 16.4137C23.1 16.7575 23.2713 17.1425 23.6138 17.1425C23.8713 17.1425 24.2575 16.7575 24.4287 16.2C24.5137 15.8575 24.8575 15.5575 25.1575 15.5575C25.2862 15.5575 25.37 15.6 25.4137 15.7712C25.4137 15.8575 25.4138 16.0288 25.2425 16.5863C25.03 16.9713 25.0287 17.1862 25.0712 17.3575C25.1137 17.7 25.285 17.9575 25.4575 18.0862C25.5 18.1287 25.5425 18.2138 25.5425 18.2138C25.5425 18.3 25.5 18.3862 25.3713 18.3862C25.3288 18.3862 25.2863 18.3862 25.2425 18.3425C24.6 18.0862 24.3425 17.6575 24.2563 17.2287C24 17.5287 23.7 17.7 23.3562 17.7C22.8 17.7 22.2438 17.1863 22.1563 16.5425C22.1314 16.2685 22.1633 15.9923 22.25 15.7313C21.9962 15.8938 21.7225 15.985 21.4713 15.985H21.2587C20.7 16.8 20.1 17.3575 19.6713 17.6137C19.5256 17.6911 19.3647 17.7355 19.2 17.7437C19.115 17.7437 18.9862 17.7 18.9437 17.6137C18.825 17.4237 18.7487 17.1237 18.7025 16.78C18.1012 17.4387 17.2712 17.7863 16.8862 17.7863C16.4575 17.7863 16.2013 17.5287 16.1588 17.0987V16.6288C16.2863 15.6863 16.63 15.1287 16.63 14.9575C16.6288 14.9349 16.6194 14.9135 16.6035 14.8974C16.5876 14.8812 16.5663 14.8715 16.5437 14.87C16.2437 14.87 15.2588 15.9 15.0863 16.5863L14.9575 17.1425C14.8725 17.5287 14.4862 17.7863 14.23 17.7863C14.1012 17.7863 14.015 17.7425 13.9725 17.5713V17.4L14.03 17.1088C13.4862 17.4963 12.9425 17.7437 12.6863 17.7437C12.3013 17.7437 12.0863 17.5287 12.0438 17.2287C11.7863 17.5712 11.4875 17.7437 11.1012 17.7437C10.6612 17.7437 10.2313 17.4438 10.0238 17.0025C9.71875 17.3463 9.37 17.6938 8.95875 17.9575C8.35875 18.3438 7.67375 18.6437 6.85875 18.6437C6.13125 18.6437 5.4875 18.2575 5.145 17.915C4.63 17.4437 4.33125 16.715 4.2875 16.0287C4.03125 13.9288 5.31625 11.2287 7.2875 10.0287C7.76 9.7725 8.23125 9.6 8.7025 9.6ZM20.915 13.7137C20.785 13.7137 20.7 13.9288 20.7 14.1425C20.7 14.485 20.8712 14.8713 21.0862 15.0863C21.171 14.8527 21.2142 14.606 21.2138 14.3575C21.2138 13.9288 21.0438 13.7137 20.915 13.7137Z" fill="white"/>
</g>
<defs>
<clipPath id="clip0_285_357">
<rect width="30" height="30" fill="white"/>
</clipPath>
</defs>
</svg>
