<svg width="24" height="24" viewBox="0 0 24 24" fill="none" xmlns="http://www.w3.org/2000/svg">
<path d="M8.667 8.667C7.7829 8.667 6.93501 8.31579 6.30986 7.69064C5.6847 7.06549 5.3335 6.2176 5.3335 5.3335C5.3335 4.4494 5.6847 3.60151 6.30986 2.97636C6.93501 2.35121 7.7829 2 8.667 2H12V8.667M8.667 8.667H12M8.667 8.667C7.78303 8.667 6.93527 9.01815 6.31021 9.64321C5.68515 10.2683 5.334 11.116 5.334 12C5.334 12.884 5.68515 13.7317 6.31021 14.3568C6.93527 14.9818 7.78303 15.333 8.667 15.333H12V8.667" stroke="white" stroke-width="1.5"/>
<path d="M18.667 11.9995C18.667 12.8836 18.3158 13.7315 17.6906 14.3567C17.0655 14.9818 16.2176 15.333 15.3335 15.333C14.4494 15.333 13.6015 14.9818 12.9763 14.3567C12.3512 13.7315 12 12.8836 12 11.9995C12 11.1154 12.3512 10.2675 12.9763 9.64237C13.6015 9.01722 14.4494 8.66602 15.3335 8.66602C16.2176 8.66602 17.0655 9.01722 17.6906 9.64237C18.3158 10.2675 18.667 11.1154 18.667 11.9995ZM8.66699 15.3335H12V18.6665C11.9998 19.3257 11.8041 19.97 11.4378 20.518C11.0714 21.0659 10.5508 21.493 9.94178 21.7451C9.33273 21.9972 8.66261 22.0631 8.01614 21.9344C7.36966 21.8056 6.77587 21.4881 6.30985 21.0219C5.84382 20.5558 5.52648 19.9619 5.39796 19.3154C5.26943 18.6689 5.33549 17.9988 5.58779 17.3898C5.84009 16.7808 6.26729 16.2603 6.81537 15.8942C7.36346 15.528 8.00782 15.3335 8.66699 15.3335Z" stroke="white" stroke-width="1.5"/>
<path d="M12 2H15.333C16.2171 2 17.065 2.35121 17.6901 2.97636C18.3153 3.60151 18.6665 4.4494 18.6665 5.3335C18.6665 6.2176 18.3153 7.06549 17.6901 7.69064C17.065 8.31579 16.2171 8.667 15.333 8.667H12V2Z" stroke="white" stroke-width="1.5"/>
</svg>
